<svg width="189" height="198" viewBox="0 0 189 198" fill="none" xmlns="http://www.w3.org/2000/svg">
<g opacity="0.5">
<path opacity="0.31" d="M157.325 136.604C157.061 136.607 155.435 134.33 155.123 134.015C152.577 131.434 151.05 128.597 149.902 125.512C149.027 123.16 148.374 120.661 147.662 118.025C147.18 116.246 146.405 114.259 144.725 113.698C143.09 113.153 141.33 114.283 140.325 115.738C139.319 117.194 138.813 118.96 137.954 120.514C136.395 123.332 133.635 124.513 131.353 122.036C128.095 118.498 126.626 113.672 124.56 109.357C123.06 106.223 121.803 102.555 119.913 99.6655C117.031 95.2618 113.078 91.5053 107.823 91.5053C104.491 92.0333 101.556 95.1262 99.568 98.989C97.5818 102.852 96.4215 107.448 95.4345 112.031C94.6068 115.876 93.8805 119.763 93.2085 123.669C91.959 118.961 90.6587 114.288 89.2518 109.696C87.7275 104.722 86.044 99.7663 83.706 95.7862C81.368 91.806 78.2723 88.8708 75.1642 88.891C70.3745 89.8627 67.284 94.8163 65.2575 100.305C63.9292 103.904 63.2852 108.264 62.3437 112.066C61.0487 117.304 60.3697 123.002 57.8812 127.587C56.14 130.796 53.4625 129.978 51.6582 127.094C50.6625 125.503 49.9607 123.611 48.846 122.159C47.7312 120.707 45.9725 119.761 44.5585 120.676C43.1042 121.616 42.6685 123.998 42.4725 126.086C42.182 129.186 41.9282 132.116 41.4505 134.924C41.3472 135.537 41.2318 136.142 41.104 136.741H91.112C91.077 136.965 91.042 137.19 91.0087 137.414L157.325 136.604Z" fill="#DCE6EF"/>
<path opacity="0.77" d="M137.315 129.483C137.186 132.183 134.381 136.904 131.803 136.769C129.225 136.633 127.85 131.69 127.981 128.99C128.11 126.289 130.856 112.774 133.434 112.911C136.01 113.047 137.445 126.782 137.315 129.483Z" fill="#FFBE55"/>
<path d="M132.01 136.624H132.006C131.997 136.623 131.988 136.621 131.98 136.617C131.972 136.613 131.965 136.607 131.959 136.6C131.954 136.593 131.949 136.585 131.946 136.576C131.943 136.567 131.942 136.558 131.943 136.549L133.243 114.662C133.245 114.624 133.275 114.591 133.315 114.596C133.352 114.598 133.381 114.633 133.378 114.671L132.078 136.558C132.076 136.576 132.068 136.592 132.056 136.604C132.043 136.616 132.027 136.623 132.01 136.624Z" fill="#0B4870"/>
<path opacity="0.77" d="M131.415 128.92C130.828 130.271 130.38 131.688 130.111 133.166C129.974 133.914 129.887 134.726 130.211 135.41C130.564 136.156 131.348 136.591 132.132 136.726C134.048 137.056 135.965 135.826 137.088 134.167C138.212 132.508 138.698 130.478 139.144 128.5C139.496 126.942 139.841 125.36 140.504 123.908C140.788 123.284 142.452 120.881 141.664 120.258C140.588 119.372 137.473 120.335 135.478 122.619C133.833 124.496 132.419 126.61 131.415 128.92Z" fill="#FFBE55"/>
<path d="M132.132 136.796C132.127 136.796 132.122 136.796 132.115 136.794C132.097 136.789 132.082 136.778 132.073 136.762C132.064 136.745 132.061 136.726 132.065 136.708C132.088 136.613 134.449 127.191 139.984 121.827C140.012 121.801 140.054 121.801 140.081 121.83C140.107 121.86 140.105 121.904 140.077 121.931C134.57 127.266 132.221 136.649 132.199 136.743C132.192 136.776 132.163 136.796 132.132 136.796Z" fill="#0B4870"/>
<path opacity="0.77" d="M144.965 126.696C144.767 127.068 144.396 127.321 144.058 127.519C143.643 127.765 143.201 127.98 142.772 128.189C142.223 128.456 141.656 128.733 141.131 129.078C140.749 129.329 140.41 129.613 140.124 129.917C140.574 128.847 141.101 127.912 141.72 127.076C142.536 125.976 143.372 125.418 144.21 125.418C144.23 125.418 144.249 125.418 144.268 125.42C144.527 125.428 144.728 125.495 144.867 125.62C145.152 125.875 145.14 126.366 144.965 126.696ZM145.899 132.796C145.569 133.043 145.129 133.106 144.744 133.135C144.268 133.17 143.78 133.166 143.309 133.164C142.704 133.161 142.077 133.155 141.463 133.232C141.015 133.289 140.592 133.393 140.21 133.54C141.054 132.774 141.911 132.163 142.812 131.687C143.999 131.058 144.982 130.929 145.74 131.305L145.792 131.333C146.023 131.456 146.177 131.606 146.253 131.782C146.403 132.138 146.192 132.578 145.899 132.796Z" fill="#FFBE55"/>
<path opacity="0.77" d="M143.694 135.799C143.419 135.758 143.173 135.575 142.968 135.399C142.716 135.183 142.474 134.943 142.242 134.708C141.942 134.409 141.633 134.099 141.293 133.835C141.045 133.643 140.787 133.487 140.532 133.373C141.295 133.406 141.993 133.524 142.656 133.729C143.528 133.998 144.074 134.418 144.282 134.976C144.287 134.988 144.291 135.001 144.296 135.014C144.356 135.188 144.364 135.339 144.324 135.463C144.24 135.718 143.937 135.833 143.694 135.799Z" fill="#FFBE55"/>
<path d="M137.422 136.851C137.387 136.847 137.354 136.82 137.354 136.779C137.354 136.721 137.457 130.913 144.139 126.045C144.17 126.023 144.212 126.031 144.233 126.064C144.254 126.097 144.247 126.141 144.216 126.163C137.592 130.988 137.489 136.723 137.489 136.779C137.491 136.818 137.461 136.851 137.422 136.851Z" fill="#0B4870"/>
<path d="M137.422 136.851C137.412 136.851 137.403 136.849 137.393 136.844C137.384 136.84 137.377 136.834 137.371 136.827C137.365 136.82 137.36 136.812 137.357 136.803C137.354 136.794 137.352 136.785 137.353 136.776C137.353 136.766 137.355 136.757 137.359 136.748C137.38 136.702 139.508 132.07 145.089 132.07C145.128 132.07 145.157 132.101 145.157 132.141C145.157 132.181 145.128 132.213 145.089 132.213C139.598 132.213 137.503 136.763 137.484 136.809C137.473 136.834 137.449 136.851 137.422 136.851Z" fill="#0B4870"/>
<path d="M143.82 135.21C143.806 135.21 143.792 135.205 143.78 135.195C141.572 133.45 140.485 133.501 140.476 133.503C140.438 133.507 140.406 133.476 140.403 133.437C140.401 133.399 140.429 133.364 140.466 133.36C140.511 133.355 141.601 133.296 143.862 135.082C143.892 135.106 143.899 135.15 143.876 135.183C143.862 135.199 143.841 135.21 143.82 135.21Z" fill="#0B4870"/>
<path d="M58.3362 128.326C57.365 127.151 56.1347 126.139 55.7462 124.656C55.4627 123.572 55.6867 122.426 55.797 121.31C55.9072 120.193 55.8687 118.958 55.1792 118.1C54.6105 117.392 53.7127 117.084 52.85 116.89C51.9872 116.695 51.086 116.573 50.3195 116.112C49.0752 115.364 49.3237 114.094 48.6552 112.979C47.9062 111.729 46.1615 110.132 44.667 110.962C43.085 111.842 43.3352 114.514 44.387 115.692C45.0852 116.475 45.9795 117.225 46.0827 118.292C46.2367 119.896 44.4832 121.341 44.9645 122.874C45.3215 124.005 46.6812 124.393 47.355 125.354C48.02 126.306 47.8852 127.637 47.495 128.742C47.103 129.848 46.487 130.869 46.2437 132.018C45.745 134.372 47.509 135.998 49.518 136.525C51.3642 137.007 55.3455 136.779 55.3455 136.779C56.7665 136.259 58.3415 134.952 59.1237 133.522C59.7135 132.442 59.7957 131.074 59.339 129.925C59.1027 129.334 58.7422 128.816 58.3362 128.326Z" fill="#FFBE55"/>
<path d="M53.9752 136.79C53.9402 136.79 53.9088 136.761 53.907 136.723C53.1773 124.665 46.4485 113.65 46.3803 113.54C46.3752 113.532 46.3717 113.523 46.3701 113.514C46.3684 113.505 46.3685 113.495 46.3705 113.486C46.3725 113.477 46.3762 113.468 46.3815 113.46C46.3868 113.453 46.3935 113.446 46.4012 113.441C46.4327 113.419 46.4748 113.428 46.4958 113.463C46.564 113.573 53.312 124.621 54.0452 136.713C54.047 136.752 54.019 136.787 53.9823 136.789C53.9788 136.79 53.977 136.79 53.9752 136.79Z" fill="#0B4870"/>
<path d="M40.383 128.341C40.488 128.247 40.6403 128.196 40.8363 128.19H40.88C41.5118 128.19 42.1452 128.612 42.763 129.442C43.232 130.075 43.6292 130.783 43.9687 131.591C43.7535 131.36 43.4962 131.146 43.2075 130.957C42.812 130.696 42.3815 130.487 41.9667 130.284C41.643 130.126 41.3087 129.963 40.9955 129.778C40.74 129.628 40.46 129.435 40.3095 129.155C40.1765 128.905 40.1677 128.533 40.383 128.341ZM39.3365 132.999C39.3925 132.867 39.5097 132.753 39.6847 132.66C39.697 132.653 39.711 132.647 39.7233 132.64C40.2955 132.356 41.0392 132.453 41.937 132.928C42.6195 133.289 43.267 133.751 43.9057 134.33C43.617 134.218 43.2967 134.139 42.959 134.097C42.4935 134.039 42.021 134.042 41.5625 134.046C41.2055 134.048 40.8362 134.051 40.4775 134.024C40.1852 134.002 39.8545 133.954 39.6042 133.767C39.3802 133.602 39.221 133.269 39.3365 132.999Z" fill="#FFBE55"/>
<path d="M40.7925 135.786C40.761 135.692 40.768 135.579 40.8135 135.447C40.817 135.437 40.8205 135.427 40.824 135.417C40.9815 134.996 41.3945 134.678 42.0542 134.475C42.5547 134.319 43.0833 134.231 43.6608 134.206C43.4665 134.292 43.2722 134.409 43.085 134.556C42.8277 134.756 42.5933 134.988 42.3675 135.216C42.1908 135.392 42.0088 135.575 41.818 135.738C41.664 135.87 41.4768 136.009 41.2685 136.041C41.0848 136.064 40.8573 135.977 40.7925 135.786Z" fill="#FFBE55"/>
<path d="M46.011 136.851C45.9929 136.851 45.9755 136.843 45.9627 136.83C45.9499 136.817 45.9428 136.798 45.9428 136.78C45.9428 136.736 45.8605 132.405 40.8643 128.766C40.8494 128.755 40.8392 128.739 40.8359 128.72C40.8326 128.702 40.8365 128.683 40.8468 128.667C40.857 128.651 40.8727 128.641 40.8904 128.637C40.9081 128.634 40.9264 128.638 40.9413 128.649C46.0005 132.334 46.0793 136.736 46.0793 136.78C46.081 136.818 46.0495 136.851 46.011 136.851C46.0128 136.851 46.0128 136.851 46.011 136.851Z" fill="#0B4870"/>
<path d="M46.0127 136.851C45.9865 136.851 45.962 136.836 45.9515 136.811C45.9357 136.776 44.3555 133.346 40.215 133.346C40.1765 133.346 40.1467 133.314 40.1467 133.274C40.1467 133.234 40.1765 133.203 40.215 133.203C44.4447 133.203 46.0582 136.715 46.074 136.75C46.0897 136.787 46.0757 136.829 46.0407 136.845C46.032 136.847 46.0215 136.851 46.0127 136.851Z" fill="#0B4870"/>
<path d="M41.174 135.61C41.1634 135.61 41.1528 135.607 41.1434 135.602C41.1339 135.597 41.1258 135.59 41.1198 135.581C41.097 135.549 41.1023 135.504 41.1338 135.48C42.847 134.125 43.6783 134.173 43.7133 134.174C43.75 134.178 43.7798 134.211 43.7763 134.251C43.7728 134.29 43.7413 134.323 43.7028 134.317C43.694 134.317 42.8785 134.281 41.216 135.593C41.202 135.606 41.188 135.61 41.174 135.61Z" fill="#0B4870"/>
<path d="M113.533 133.826H65.5515C64.4945 133.826 63.6353 132.926 63.6353 131.819V64.1685C63.6353 63.0612 64.4945 62.161 65.5515 62.161H79.8928V62.711H65.5515C64.785 62.711 64.1603 63.3655 64.1603 64.1685V131.819C64.1603 132.622 64.785 133.276 65.5515 133.276H113.533C114.3 133.276 114.924 132.622 114.924 131.819V64.1685C114.924 63.3655 114.3 62.711 113.533 62.711H99.1953V62.161H113.533C114.59 62.161 115.449 63.0612 115.449 64.1685V131.819C115.449 132.924 114.59 133.826 113.533 133.826Z" fill="#FFBE55"/>
<path d="M111.531 130.269H67.5535C67.1808 130.269 66.878 129.952 66.878 129.562V66.4253C66.878 66.0348 67.1808 65.7177 67.5535 65.7177H111.531C111.904 65.7177 112.207 66.0348 112.207 66.4253V129.562C112.207 129.952 111.904 130.269 111.531 130.269Z" fill="#F2F2F2"/>
<path d="M99.4227 67.5913H79.6617V60.8172H85.3825C85.421 58.4485 87.2725 56.5327 89.5422 56.5327C91.812 56.5327 93.6635 58.4485 93.702 60.8172H99.4227V67.5913ZM80.1867 67.0413H98.8977V61.3672H93.1542L93.1717 61.0042C93.1735 60.9675 93.177 60.929 93.177 60.8905C93.177 58.7913 91.546 57.0827 89.5422 57.0827C87.5385 57.0827 85.9075 58.7913 85.9075 60.8905C85.9075 60.929 85.911 60.9675 85.9127 61.0042L85.9302 61.3672H80.1867V67.0413Z" fill="#FFBE55"/>
<path d="M89.5423 63.459C88.1913 63.459 87.0905 62.3077 87.0905 60.8905C87.0905 59.4733 88.1895 58.322 89.5423 58.322C90.895 58.322 91.994 59.4733 91.994 60.8905C91.994 62.3077 90.8933 63.459 89.5423 63.459ZM89.5423 58.8738C88.48 58.8738 87.6155 59.7795 87.6155 60.8923C87.6155 62.0052 88.48 62.9108 89.5423 62.9108C90.6045 62.9108 91.469 62.0052 91.469 60.8923C91.469 59.7795 90.6045 58.8738 89.5423 58.8738Z" fill="#FFBE55"/>
<path d="M158.55 144.441H30.45C28.42 144.441 26.775 142.718 26.775 140.591C26.775 138.464 28.42 136.741 30.45 136.741H158.55C160.58 136.741 162.225 138.464 162.225 140.591C162.225 142.718 160.58 144.441 158.55 144.441Z" fill="#D3D3D3"/>
<path d="M80.164 83.6385H72.5918V75.7057H80.164V83.6385ZM72.7668 83.4552H79.989V75.889H72.7668V83.4552Z" fill="#0B4870"/>
<path d="M76.6273 81.8895L74.1248 79.8307L74.557 79.255L76.58 80.9178L80.9603 76.4977L81.445 77.0257L76.6273 81.8895ZM107.73 77.9973H83.6273C83.5516 77.9973 83.479 77.9659 83.4255 77.9098C83.3721 77.8538 83.342 77.7778 83.342 77.6985C83.342 77.6193 83.3721 77.5432 83.4255 77.4872C83.479 77.4312 83.5516 77.3997 83.6273 77.3997H107.73C107.806 77.3997 107.878 77.4312 107.932 77.4872C107.985 77.5432 108.015 77.6193 108.015 77.6985C108.015 77.7778 107.985 77.8538 107.932 77.9098C107.878 77.9659 107.806 77.9973 107.73 77.9973ZM107.73 79.3137H83.6273C83.5516 79.3137 83.479 79.2822 83.4255 79.2262C83.3721 79.1701 83.342 79.0941 83.342 79.0148C83.342 78.9356 83.3721 78.8596 83.4255 78.8035C83.479 78.7475 83.5516 78.716 83.6273 78.716H107.73C107.806 78.716 107.878 78.7475 107.932 78.8035C107.985 78.8596 108.015 78.9356 108.015 79.0148C108.015 79.0941 107.985 79.1701 107.932 79.2262C107.878 79.2822 107.806 79.3137 107.73 79.3137ZM107.73 80.6282H83.6273C83.5516 80.6282 83.479 80.5967 83.4255 80.5407C83.3721 80.4846 83.342 80.4086 83.342 80.3293C83.342 80.2501 83.3721 80.1741 83.4255 80.118C83.479 80.062 83.5516 80.0305 83.6273 80.0305H107.73C107.806 80.0305 107.878 80.062 107.932 80.118C107.985 80.1741 108.015 80.2501 108.015 80.3293C108.015 80.4086 107.985 80.4846 107.932 80.5407C107.878 80.5967 107.806 80.6282 107.73 80.6282ZM107.73 81.9445H83.6273C83.5516 81.9445 83.479 81.913 83.4255 81.857C83.3721 81.8009 83.342 81.7249 83.342 81.6457C83.342 81.5664 83.3721 81.4904 83.4255 81.4344C83.479 81.3783 83.5516 81.3468 83.6273 81.3468H107.73C107.806 81.3468 107.878 81.3783 107.932 81.4344C107.985 81.4904 108.015 81.5664 108.015 81.6457C108.015 81.7249 107.985 81.8009 107.932 81.857C107.878 81.913 107.806 81.9445 107.73 81.9445ZM80.164 96.1143H72.5918V88.1815H80.164V96.1143ZM72.7668 95.931H79.989V88.3648H72.7668V95.931Z" fill="#0B4870"/>
<path d="M76.6273 94.3653L74.1248 92.3065L74.557 91.7308L76.58 93.3937L80.9603 88.9735L81.445 89.5015L76.6273 94.3653ZM107.73 90.4732H83.6273C83.5516 90.4732 83.479 90.4417 83.4255 90.3856C83.3721 90.3296 83.342 90.2536 83.342 90.1743C83.342 90.0951 83.3721 90.0191 83.4255 89.963C83.479 89.907 83.5516 89.8755 83.6273 89.8755H107.73C107.806 89.8755 107.878 89.907 107.932 89.963C107.985 90.0191 108.015 90.0951 108.015 90.1743C108.015 90.2536 107.985 90.3296 107.932 90.3856C107.878 90.4417 107.806 90.4732 107.73 90.4732ZM107.73 91.7895H83.6273C83.5516 91.7895 83.479 91.758 83.4255 91.702C83.3721 91.6459 83.342 91.5699 83.342 91.4907C83.342 91.4114 83.3721 91.3354 83.4255 91.2794C83.479 91.2233 83.5516 91.1918 83.6273 91.1918H107.73C107.806 91.1918 107.878 91.2233 107.932 91.2794C107.985 91.3354 108.015 91.4114 108.015 91.4907C108.015 91.5699 107.985 91.6459 107.932 91.702C107.878 91.758 107.806 91.7895 107.73 91.7895ZM107.73 93.104H83.6273C83.5516 93.104 83.479 93.0725 83.4255 93.0165C83.3721 92.9604 83.342 92.8844 83.342 92.8052C83.342 92.7259 83.3721 92.6499 83.4255 92.5939C83.479 92.5378 83.5516 92.5063 83.6273 92.5063H107.73C107.806 92.5063 107.878 92.5378 107.932 92.5939C107.985 92.6499 108.015 92.7259 108.015 92.8052C108.015 92.8844 107.985 92.9604 107.932 93.0165C107.878 93.0725 107.806 93.104 107.73 93.104ZM107.73 94.4203H83.6273C83.5516 94.4203 83.479 94.3889 83.4255 94.3328C83.3721 94.2768 83.342 94.2008 83.342 94.1215C83.342 94.0423 83.3721 93.9662 83.4255 93.9102C83.479 93.8542 83.5516 93.8227 83.6273 93.8227H107.73C107.806 93.8227 107.878 93.8542 107.932 93.9102C107.985 93.9662 108.015 94.0423 108.015 94.1215C108.015 94.2008 107.985 94.2768 107.932 94.3328C107.878 94.3889 107.806 94.4203 107.73 94.4203ZM80.164 108.59H72.5918V100.657H80.164V108.59ZM72.7668 108.407H79.989V100.841H72.7668V108.407Z" fill="#0B4870"/>
<path d="M76.6273 106.841L74.1248 104.782L74.557 104.207L76.58 105.87L80.9603 101.449L81.445 101.977L76.6273 106.841ZM107.73 102.949H83.6273C83.5516 102.949 83.479 102.918 83.4255 102.861C83.3721 102.805 83.342 102.729 83.342 102.65C83.342 102.571 83.3721 102.495 83.4255 102.439C83.479 102.383 83.5516 102.351 83.6273 102.351H107.73C107.806 102.351 107.878 102.383 107.932 102.439C107.985 102.495 108.015 102.571 108.015 102.65C108.015 102.729 107.985 102.805 107.932 102.861C107.878 102.918 107.806 102.949 107.73 102.949ZM107.73 104.265H83.6273C83.5516 104.265 83.479 104.234 83.4255 104.178C83.3721 104.122 83.342 104.046 83.342 103.967C83.342 103.887 83.3721 103.811 83.4255 103.755C83.479 103.699 83.5516 103.668 83.6273 103.668H107.73C107.806 103.668 107.878 103.699 107.932 103.755C107.985 103.811 108.015 103.887 108.015 103.967C108.015 104.046 107.985 104.122 107.932 104.178C107.878 104.234 107.806 104.265 107.73 104.265ZM107.73 105.58H83.6273C83.5516 105.58 83.479 105.548 83.4255 105.492C83.3721 105.436 83.342 105.36 83.342 105.281C83.342 105.202 83.3721 105.126 83.4255 105.07C83.479 105.014 83.5516 104.982 83.6273 104.982H107.73C107.806 104.982 107.878 105.014 107.932 105.07C107.985 105.126 108.015 105.202 108.015 105.281C108.015 105.36 107.985 105.436 107.932 105.492C107.878 105.548 107.806 105.58 107.73 105.58ZM107.73 106.896H83.6273C83.5516 106.896 83.479 106.865 83.4255 106.809C83.3721 106.753 83.342 106.677 83.342 106.597C83.342 106.518 83.3721 106.442 83.4255 106.386C83.479 106.33 83.5516 106.299 83.6273 106.299H107.73C107.806 106.299 107.878 106.33 107.932 106.386C107.985 106.442 108.015 106.518 108.015 106.597C108.015 106.677 107.985 106.753 107.932 106.809C107.878 106.865 107.806 106.896 107.73 106.896ZM80.164 121.066H72.5918V113.133H80.164V121.066ZM72.7668 120.883H79.989V113.317H72.7668V120.883Z" fill="#0B4870"/>
<path d="M76.6273 119.317L74.1248 117.258L74.557 116.682L76.58 118.345L80.9603 113.925L81.445 114.453L76.6273 119.317ZM107.73 115.425H83.6273C83.5516 115.425 83.479 115.393 83.4256 115.337C83.3721 115.281 83.342 115.205 83.342 115.126C83.342 115.047 83.3721 114.971 83.4256 114.915C83.479 114.859 83.5516 114.827 83.6273 114.827H107.73C107.806 114.827 107.878 114.859 107.932 114.915C107.985 114.971 108.015 115.047 108.015 115.126C108.015 115.205 107.985 115.281 107.932 115.337C107.878 115.393 107.806 115.425 107.73 115.425ZM107.73 116.741H83.6273C83.5516 116.741 83.479 116.71 83.4256 116.654C83.3721 116.598 83.342 116.522 83.342 116.442C83.342 116.363 83.3721 116.287 83.4256 116.231C83.479 116.175 83.5516 116.143 83.6273 116.143H107.73C107.806 116.143 107.878 116.175 107.932 116.231C107.985 116.287 108.015 116.363 108.015 116.442C108.015 116.522 107.985 116.598 107.932 116.654C107.878 116.71 107.806 116.741 107.73 116.741ZM107.73 118.056H83.6273C83.5516 118.056 83.479 118.024 83.4256 117.968C83.3721 117.912 83.342 117.836 83.342 117.757C83.342 117.678 83.3721 117.602 83.4256 117.546C83.479 117.489 83.5516 117.458 83.6273 117.458H107.73C107.806 117.458 107.878 117.489 107.932 117.546C107.985 117.602 108.015 117.678 108.015 117.757C108.015 117.836 107.985 117.912 107.932 117.968C107.878 118.024 107.806 118.056 107.73 118.056ZM107.73 119.372H83.6273C83.5516 119.372 83.479 119.34 83.4256 119.284C83.3721 119.228 83.342 119.152 83.342 119.073C83.342 118.994 83.3721 118.918 83.4256 118.862C83.479 118.806 83.5516 118.774 83.6273 118.774H107.73C107.806 118.774 107.878 118.806 107.932 118.862C107.985 118.918 108.015 118.994 108.015 119.073C108.015 119.152 107.985 119.228 107.932 119.284C107.878 119.34 107.806 119.372 107.73 119.372Z" fill="#0B4870"/>
<path d="M108.95 106.575C109.342 106.284 109.702 105.947 109.868 105.848C109.938 105.807 110.155 105.756 110.217 105.736C110.399 105.679 110.689 105.62 110.815 105.472L111.354 104.852C111.61 104.548 111.944 104.447 112.233 104.715C112.546 105.004 112.453 105.417 112.142 105.71L111.772 106.15C111.524 106.385 111.4 106.715 111.262 107.034C110.982 107.685 110.346 108.174 109.804 108.517C109.462 108.731 108.946 108.579 108.269 108.337C107.936 108.218 107.455 107.93 107.87 107.767C108.218 107.631 109.265 107.927 109.727 106.916C109.749 106.867 109.798 106.735 109.751 106.689C109.611 106.552 109.301 106.863 109.095 106.962C108.804 107.102 108.572 107.054 108.5 106.942C108.423 106.825 108.67 106.784 108.95 106.575Z" fill="#FAB9AF"/>
<path d="M123.678 84.4122C123.678 84.4122 122.813 95.2838 119.711 98.9523C117.842 101.163 113.269 104.955 112.21 105.824C112.075 105.934 111.886 105.939 111.746 105.836C111.657 105.77 111.556 105.69 111.468 105.609C111.379 105.527 111.276 105.408 111.183 105.294C111.029 105.105 111.036 104.825 111.197 104.643C112.383 103.292 117.038 97.9367 117.605 96.5287C118.255 94.9135 119.373 85.3783 120.4 83.9978C121.427 82.6137 123.396 82.3148 123.678 84.4122Z" fill="#FFBE55"/>
<path d="M119.759 102.371L122.405 82.9015L129.54 81.8748L133.252 102.232L119.759 102.371ZM125.275 132.543L125.268 134.737C125.267 135.184 125.324 135.628 125.44 136.057L125.622 136.734C125.771 137.289 125.373 137.839 124.822 137.837C123.396 137.832 120.956 137.835 120.328 137.837C120.225 137.837 120.125 137.764 120.116 137.658C120.064 137.018 121.83 136.587 123.161 136.048C124.175 135.637 124.12 133.729 123.996 132.614C123.949 132.192 124.285 131.835 124.687 131.87C125.02 131.899 125.277 132.192 125.275 132.543ZM135.082 131.927L135.803 134.436C135.835 134.548 135.882 134.653 135.945 134.748L136.456 135.544C136.782 136.05 136.547 136.739 135.991 136.917C135.991 136.917 134.958 137.296 133.896 137.663C132.807 138.037 131.437 137.725 131.437 137.423C131.437 136.754 132.032 137.285 133.03 136.587C133.364 136.352 133.709 136.108 134.017 135.855C134.874 135.15 134.125 133.364 133.6 132.357C133.411 131.996 133.612 131.547 133.997 131.461L134.246 131.406C134.61 131.327 134.974 131.553 135.082 131.927Z" fill="#FAB9AF"/>
<path d="M127.71 102.56L119.802 101.865C119.802 101.865 119.005 107.895 121.004 118.809C121.942 123.928 123.895 133.709 123.895 133.709C124.379 133.93 124.871 133.985 125.372 133.855C125.372 133.855 125.521 129.541 125.612 124.894C125.699 120.439 125.722 115.678 125.993 114.119C126.546 110.937 127.71 102.56 127.71 102.56Z" fill="#0B4870"/>
<path d="M126.077 102.665C125.26 107.255 123.436 114.12 126.95 120.567C130.462 127.015 134.153 133.72 134.153 133.72C134.629 133.74 135.06 133.56 135.46 133.241C135.46 133.241 134.844 130.319 133.954 126.905C132.935 123 131.645 118.408 132.013 116.013C132.702 111.525 133.493 105.549 133.254 102.645C133.012 99.7407 126.506 100.252 126.077 102.665Z" fill="#0B4870"/>
<path d="M119.487 101.876L122.406 82.9015L129.542 81.8748L133.376 101.911C133.394 102.001 133.394 102.093 133.377 102.182C133.36 102.272 133.326 102.357 133.278 102.432C133.229 102.508 133.167 102.573 133.094 102.623C133.022 102.674 132.94 102.708 132.855 102.725C131.526 102.989 128.322 103.539 124.735 103.539C122.057 103.539 120.552 102.995 119.868 102.648C119.733 102.58 119.624 102.468 119.555 102.329C119.486 102.19 119.462 102.031 119.487 101.876Z" fill="#F2F2F2"/>
<path d="M133.611 109.221C133.719 108.731 133.779 108.227 133.84 108.038C133.866 107.96 133.997 107.771 134.031 107.712C134.132 107.543 134.312 107.298 134.312 107.1L134.326 106.262C134.326 105.857 134.514 105.551 134.899 105.551C135.317 105.551 135.508 105.925 135.459 106.361V106.948C135.42 107.296 135.536 107.63 135.634 107.965C135.833 108.647 135.667 109.454 135.476 110.088C135.357 110.486 134.872 110.73 134.213 111.016C133.889 111.157 133.345 111.274 133.553 110.865C133.728 110.523 134.699 110.02 134.409 108.94C134.395 108.887 134.349 108.753 134.284 108.752C134.092 108.746 134.057 109.193 133.964 109.412C133.835 109.718 133.63 109.842 133.504 109.809C133.373 109.773 133.532 109.571 133.611 109.221Z" fill="#FAB9AF"/>
<path d="M127.313 83.0573C127.313 84.425 127.551 85.778 127.995 87.0632C128.867 89.5767 130.175 94.3287 129.397 98.516C128.278 104.546 126.838 106.982 128.704 108.389C130.569 109.793 134.146 107.45 134.25 106.667C134.353 105.886 133.553 96.2848 132.648 92.125C131.742 87.9652 129.204 81.9848 129.204 81.9848L128.13 82.1058C127.905 82.1305 127.698 82.2414 127.547 82.4171C127.396 82.5929 127.312 82.8209 127.313 83.0573Z" fill="#FFBE55"/>
<path d="M130.665 82.3918C130.665 82.3918 136.881 91.146 136.869 96.0465C136.862 99 135.826 105.011 135.581 106.397C135.55 106.573 135.413 106.709 135.242 106.728C135.133 106.74 135.005 106.75 134.89 106.75C134.773 106.75 134.619 106.731 134.477 106.711C134.364 106.694 134.26 106.633 134.186 106.541C134.112 106.45 134.073 106.332 134.076 106.212C134.113 104.377 134.225 97.1355 133.759 95.6853C133.226 94.0225 128.046 86.0988 127.944 84.3498C127.841 82.6027 129.131 81.0132 130.665 82.3918ZM124.341 82.6228C124.341 82.6228 123.104 85.4242 123.534 89.4502C123.966 93.4762 124.966 105.736 121.469 107.587C120.361 108.174 117.833 105.578 117.833 104.614C117.833 103.649 118.676 100.426 119.476 97.4948C120.276 94.5633 122.202 82.929 122.202 82.929L124.341 82.6228Z" fill="#FFBE55"/>
<path d="M125.337 73.9384C126.929 73.9384 127.524 75.1264 127.554 77.3227C127.566 78.1459 127.213 78.9599 126.927 79.4805C126.716 79.8674 126.658 80.3257 126.779 80.7529L127.129 81.9922C127.367 83.1417 126.845 83.7742 126.075 84.0034C125.694 84.117 125.237 84.029 124.904 83.8035C124.509 83.5359 124.476 82.9584 124.549 82.4707L124.64 82.1169C124.763 81.6402 124.498 81.1269 124.038 81.0224C122.811 80.7419 122.636 79.4017 122.307 77.3227C121.964 75.1557 123.744 73.9384 125.337 73.9384Z" fill="#FAB9AF"/>
<path d="M121.629 72.974L122.542 73.2655C122.878 73.3718 123.235 73.3755 123.573 73.2728L125.396 72.7192C126.501 72.7192 128.326 73.3718 128.095 75.042L127.892 76.2227C127.811 76.6938 127.435 77.0477 126.978 77.088C126.936 77.2512 126.795 77.3648 126.634 77.3648C126.436 77.3648 126.277 77.198 126.277 76.9908C126.277 76.4573 125.92 76.0045 125.424 75.8872C124.815 75.7442 124.166 75.7093 123.485 75.9018C122.218 76.2593 120.881 75.4362 120.755 74.0667C120.747 73.9805 120.743 73.8925 120.743 73.8027C120.741 73.249 121.177 72.8438 121.629 72.974Z" fill="#0B4870"/>
<path d="M126.677 77.363C126.677 77.8727 126.857 78.2852 127.326 78.2852C127.795 78.2852 128.095 77.5848 128.095 77.0752C128.095 76.5655 127.794 76.4408 127.326 76.4408C126.857 76.4408 126.677 76.8552 126.677 77.363Z" fill="#FAB9AF"/>
<path d="M126.87 79.5997C126.87 79.5997 125.68 81.312 124.201 81.081C124.201 81.081 124.509 81.235 124.582 81.4843C124.582 81.4843 125.988 81.3762 126.87 79.5997Z" fill="#E8948B"/>
<path d="M130.025 55.7223C130.025 56.9122 129.276 57.8783 128.35 57.8783H108.493C107.569 57.8783 106.818 56.914 106.818 55.7223C106.818 54.5325 107.567 53.5663 108.493 53.5663H128.35C129.276 53.5682 130.025 54.5325 130.025 55.7223ZM58.9452 67.265C58.9452 68.4548 58.0247 69.421 56.8872 69.421H32.4887C31.353 69.421 30.4307 68.4567 30.4307 67.265C30.4307 66.0752 31.3512 65.109 32.4887 65.109H56.889C58.0247 65.109 58.9452 66.0733 58.9452 67.265ZM68.9202 55.715C68.9202 56.9048 68.1572 57.871 67.2175 57.871H47.0278C46.088 57.871 45.325 56.9067 45.325 55.715C45.325 54.5252 46.088 53.559 47.0278 53.559H67.2175C68.1572 53.559 68.9202 54.5233 68.9202 55.715ZM151.763 65.0577C151.763 66.2475 150.843 67.2137 149.705 67.2137H125.307C124.171 67.2137 123.249 66.2493 123.249 65.0577C123.249 63.8678 124.169 62.9017 125.307 62.9017H149.707C150.843 62.9035 151.763 63.8678 151.763 65.0577Z" fill="#F2F2F2"/>
<path d="M125.487 136.23C125.487 136.23 124.381 136.741 123.35 135.945C123.35 135.945 120.806 136.373 120.076 137.161C119.346 137.949 119.875 138.34 120.792 138.323C121.707 138.307 125.246 138.268 125.246 138.268C125.246 138.268 126.154 137.687 125.487 136.23ZM136.12 134.935C136.12 134.935 135.581 135.678 134.374 135.238C134.374 135.238 131.689 136.523 131.215 137.502C130.741 138.481 131.355 138.69 132.226 138.391C133.098 138.092 136.465 136.959 136.465 136.959C136.465 136.959 137.168 136.12 136.12 134.935Z" fill="#0B4870"/>
</g>
</svg>
